<?xml version="1.0" encoding="UTF-8" standalone="no"?>
<!DOCTYPE svg PUBLIC "-//W3C//DTD SVG 1.1//EN"
 "http://www.w3.org/Graphics/SVG/1.1/DTD/svg11.dtd">
<!-- Generated by graphviz version 8.0.4 (20230422.2207)
 -->
<!-- Title: G Pages: 1 -->
<svg width="1408pt" height="385pt"
 viewBox="0.00 0.00 1408.00 384.80" xmlns="http://www.w3.org/2000/svg" xmlns:xlink="http://www.w3.org/1999/xlink">
<g id="graph0" class="graph" transform="scale(1 1) rotate(0) translate(4 380.8)">
<title>G</title>
<polygon fill="white" stroke="none" points="-4,4 -4,-380.8 1404,-380.8 1404,4 -4,4"/>
<g id="clust1" class="cluster">
<title>cluster_0</title>
<polygon fill="none" stroke="blue" points="8,-133.6 8,-368.8 1108,-368.8 1108,-133.6 8,-133.6"/>
<text text-anchor="middle" x="558" y="-351.5" font-family="Times,serif" font-size="14.00">Bases</text>
</g>
<g id="clust2" class="cluster">
<title>cluster_1</title>
<polygon fill="none" stroke="lightblue" points="835,-259.2 835,-336 1009,-336 1009,-259.2 835,-259.2"/>
<text text-anchor="middle" x="922" y="-318.7" font-family="Times,serif" font-size="14.00">Uber&#45;Base (User base)</text>
</g>
<g id="clust3" class="cluster">
<title>cluster_2</title>
<polygon fill="none" stroke="lightgreen" points="16,-141.6 16,-218.4 278,-218.4 278,-141.6 16,-141.6"/>
<text text-anchor="middle" x="147" y="-201.1" font-family="Times,serif" font-size="14.00">Vision&#45;Base</text>
</g>
<g id="clust4" class="cluster">
<title>cluster_3</title>
<polygon fill="none" stroke="lightcoral" points="286,-141.6 286,-218.4 736,-218.4 736,-141.6 286,-141.6"/>
<text text-anchor="middle" x="511" y="-201.1" font-family="Times,serif" font-size="14.00">Audio&#45;Base</text>
</g>
<g id="clust5" class="cluster">
<title>cluster_4</title>
<polygon fill="none" stroke="lightyellow" points="744,-141.6 744,-218.4 1100,-218.4 1100,-141.6 744,-141.6"/>
<text text-anchor="middle" x="922" y="-201.1" font-family="Times,serif" font-size="14.00">Location&#45;Base</text>
</g>
<g id="clust6" class="cluster">
<title>cluster_5</title>
<polygon fill="none" stroke="green" points="112,-8 112,-125.6 992,-125.6 992,-8 112,-8"/>
<text text-anchor="middle" x="552" y="-108.3" font-family="Times,serif" font-size="14.00">Badges</text>
</g>
<g id="clust7" class="cluster">
<title>cluster_6</title>
<polygon fill="none" stroke="lightblue" points="120,-16 120,-92.8 312,-92.8 312,-16 120,-16"/>
<text text-anchor="middle" x="216" y="-75.5" font-family="Times,serif" font-size="14.00">Vision&#45;Badge</text>
</g>
<g id="clust8" class="cluster">
<title>cluster_7</title>
<polygon fill="none" stroke="lightgreen" points="320,-16 320,-92.8 512,-92.8 512,-16 320,-16"/>
<text text-anchor="middle" x="416" y="-75.5" font-family="Times,serif" font-size="14.00">Voice&#45;Badge Deluxe</text>
</g>
<g id="clust9" class="cluster">
<title>cluster_8</title>
<polygon fill="none" stroke="lightcoral" points="520,-16 520,-92.8 712,-92.8 712,-16 520,-16"/>
<text text-anchor="middle" x="616" y="-75.5" font-family="Times,serif" font-size="14.00">Voice&#45;Badge Simple</text>
</g>
<g id="clust10" class="cluster">
<title>cluster_9</title>
<polygon fill="none" stroke="lightyellow" points="720,-16 720,-92.8 984,-92.8 984,-16 720,-16"/>
<text text-anchor="middle" x="852" y="-75.5" font-family="Times,serif" font-size="14.00">Regular&#45;Badge</text>
</g>
<g id="clust11" class="cluster">
<title>cluster_10</title>
<polygon fill="none" stroke="red" points="1116,-133.6 1116,-251.2 1392,-251.2 1392,-133.6 1116,-133.6"/>
<text text-anchor="middle" x="1254" y="-233.9" font-family="Times,serif" font-size="14.00">Database Server</text>
</g>
<g id="clust12" class="cluster">
<title>cluster_11</title>
<polygon fill="none" stroke="gold" points="1262,-141.6 1262,-218.4 1384,-218.4 1384,-141.6 1262,-141.6"/>
<text text-anchor="middle" x="1323" y="-201.1" font-family="Times,serif" font-size="14.00">Influx DB</text>
</g>
<g id="clust13" class="cluster">
<title>cluster_12</title>
<polygon fill="none" stroke="silver" points="1124,-141.6 1124,-218.4 1254,-218.4 1254,-141.6 1124,-141.6"/>
<text text-anchor="middle" x="1189" y="-201.1" font-family="Times,serif" font-size="14.00">Mongo DB</text>
</g>
<!-- UB -->
<g id="node1" class="node">
<title>UB</title>
<polygon fill="none" stroke="black" points="1000.5,-303.2 843.5,-303.2 843.5,-267.2 1000.5,-267.2 1000.5,-303.2"/>
<text text-anchor="middle" x="922" y="-280.3" font-family="Times,serif" font-size="14.00">Web Page, MQTT Client</text>
</g>
<!-- VB -->
<g id="node2" class="node">
<title>VB</title>
<polygon fill="none" stroke="black" points="270,-185.6 24,-185.6 24,-149.6 270,-149.6 270,-185.6"/>
<text text-anchor="middle" x="147" y="-162.7" font-family="Times,serif" font-size="14.00">Camera, MQTT Broker, InfluxDB Client</text>
</g>
<!-- UB&#45;&gt;VB -->
<g id="edge1" class="edge">
<title>UB&#45;&gt;VB</title>
<path fill="none" stroke="black" d="M843.15,-284.96C695.83,-285.58 384.49,-282.94 282,-251.2 242.32,-238.91 202.43,-212.33 176.41,-192.63"/>
<polygon fill="black" stroke="black" points="178.86,-189.32 168.81,-185.98 174.58,-194.86 178.86,-189.32"/>
</g>
<!-- AB -->
<g id="node3" class="node">
<title>AB</title>
<polygon fill="none" stroke="black" points="728,-185.6 294,-185.6 294,-149.6 728,-149.6 728,-185.6"/>
<text text-anchor="middle" x="511" y="-162.7" font-family="Times,serif" font-size="14.00">RFID Hat, BLE, MQTT Broker, InfluxDB Client, MongoDB Client, Jabra</text>
</g>
<!-- UB&#45;&gt;AB -->
<g id="edge2" class="edge">
<title>UB&#45;&gt;AB</title>
<path fill="none" stroke="black" d="M843.43,-272.9C811.12,-267.49 773.49,-260.21 740,-251.2 677.77,-234.46 608.44,-208.36 562.53,-189.99"/>
<polygon fill="black" stroke="black" points="564.12,-186.45 553.54,-185.96 561.5,-192.94 564.12,-186.45"/>
</g>
<!-- LB -->
<g id="node4" class="node">
<title>LB</title>
<polygon fill="none" stroke="black" points="1091.5,-185.6 752.5,-185.6 752.5,-149.6 1091.5,-149.6 1091.5,-185.6"/>
<text text-anchor="middle" x="922" y="-162.7" font-family="Times,serif" font-size="14.00">RFID Shield / Hat, BLE, MQTT Broker, InfluxDB Client</text>
</g>
<!-- UB&#45;&gt;LB -->
<g id="edge3" class="edge">
<title>UB&#45;&gt;LB</title>
<path fill="none" stroke="black" d="M922,-267.14C922,-248.62 922,-218.73 922,-196.72"/>
<polygon fill="black" stroke="black" points="925.5,-196.73 922,-186.73 918.5,-196.73 925.5,-196.73"/>
</g>
<!-- InfluxDB -->
<g id="node9" class="node">
<title>InfluxDB</title>
<polygon fill="none" stroke="black" points="1376,-185.6 1270,-185.6 1270,-149.6 1376,-149.6 1376,-185.6"/>
<text text-anchor="middle" x="1323" y="-162.7" font-family="Times,serif" font-size="14.00">InfluxDB server</text>
</g>
<!-- UB&#45;&gt;InfluxDB -->
<g id="edge4" class="edge">
<title>UB&#45;&gt;InfluxDB</title>
<path fill="none" stroke="black" d="M1000.8,-283.51C1085.94,-281.55 1215.2,-274.64 1258,-251.2 1280.9,-238.66 1298.5,-214.34 1309.58,-195.32"/>
<polygon fill="black" stroke="black" points="1312.99,-197.39 1314.77,-186.95 1306.86,-194 1312.99,-197.39"/>
</g>
<!-- MongoDB -->
<g id="node10" class="node">
<title>MongoDB</title>
<polygon fill="none" stroke="black" points="1245.5,-185.6 1132.5,-185.6 1132.5,-149.6 1245.5,-149.6 1245.5,-185.6"/>
<text text-anchor="middle" x="1189" y="-162.7" font-family="Times,serif" font-size="14.00">MongoDB server</text>
</g>
<!-- UB&#45;&gt;MongoDB -->
<g id="edge5" class="edge">
<title>UB&#45;&gt;MongoDB</title>
<path fill="none" stroke="black" d="M1000.97,-280.07C1034.22,-275.8 1072.45,-267.44 1104,-251.2 1130.38,-237.63 1154,-213.15 1169.61,-194.35"/>
<polygon fill="black" stroke="black" points="1172.86,-196.89 1176.4,-186.91 1167.41,-192.5 1172.86,-196.89"/>
</g>
<!-- VBadge -->
<g id="node5" class="node">
<title>VBadge</title>
<polygon fill="none" stroke="black" points="303.5,-60 128.5,-60 128.5,-24 303.5,-24 303.5,-60"/>
<text text-anchor="middle" x="216" y="-37.1" font-family="Times,serif" font-size="14.00">Vision, Audio and Vibration</text>
</g>
<!-- VB&#45;&gt;VBadge -->
<g id="edge6" class="edge">
<title>VB&#45;&gt;VBadge</title>
<path fill="none" stroke="black" d="M156.74,-149.15C168.25,-128.54 187.52,-94.02 200.95,-69.96"/>
<polygon fill="black" stroke="black" points="204.49,-71.8 206.31,-61.36 198.38,-68.38 204.49,-71.8"/>
</g>
<!-- VBDeluxe -->
<g id="node6" class="node">
<title>VBDeluxe</title>
<polygon fill="none" stroke="black" points="503.5,-60 328.5,-60 328.5,-24 503.5,-24 503.5,-60"/>
<text text-anchor="middle" x="416" y="-37.1" font-family="Times,serif" font-size="14.00">Vision, Audio and Vibration</text>
</g>
<!-- AB&#45;&gt;VBDeluxe -->
<g id="edge7" class="edge">
<title>AB&#45;&gt;VBDeluxe</title>
<path fill="none" stroke="black" d="M497.59,-149.15C481.54,-128.27 454.5,-93.09 435.98,-69"/>
<polygon fill="black" stroke="black" points="438.21,-67.15 429.34,-61.36 432.66,-71.42 438.21,-67.15"/>
</g>
<!-- VBSimple -->
<g id="node7" class="node">
<title>VBSimple</title>
<polygon fill="none" stroke="black" points="703.5,-60 528.5,-60 528.5,-24 703.5,-24 703.5,-60"/>
<text text-anchor="middle" x="616" y="-37.1" font-family="Times,serif" font-size="14.00">Vision, Audio and Vibration</text>
</g>
<!-- AB&#45;&gt;VBSimple -->
<g id="edge8" class="edge">
<title>AB&#45;&gt;VBSimple</title>
<path fill="none" stroke="black" d="M525.82,-149.15C543.64,-128.17 573.71,-92.78 594.19,-68.68"/>
<polygon fill="black" stroke="black" points="597.45,-71.25 601.25,-61.36 592.11,-66.71 597.45,-71.25"/>
</g>
<!-- RBadge -->
<g id="node8" class="node">
<title>RBadge</title>
<polygon fill="none" stroke="black" points="975.5,-60 728.5,-60 728.5,-24 975.5,-24 975.5,-60"/>
<text text-anchor="middle" x="852" y="-37.1" font-family="Times,serif" font-size="14.00">ID from base station, Proximity detection</text>
</g>
<!-- LB&#45;&gt;RBadge -->
<g id="edge9" class="edge">
<title>LB&#45;&gt;RBadge</title>
<path fill="none" stroke="black" d="M912.12,-149.15C900.39,-128.45 880.72,-93.71 867.08,-69.64"/>
<polygon fill="black" stroke="black" points="869.8,-68.33 861.83,-61.36 863.71,-71.78 869.8,-68.33"/>
</g>
</g>
</svg>
