<?xml version="1.0" encoding="UTF-8" standalone="no"?>
<!DOCTYPE svg PUBLIC "-//W3C//DTD SVG 1.1//EN"
 "http://www.w3.org/Graphics/SVG/1.1/DTD/svg11.dtd">
<!-- Generated by graphviz version 8.0.4 (20230422.2207)
 -->
<!-- Title: G Pages: 1 -->
<svg width="909pt" height="324pt"
 viewBox="0.00 0.00 909.00 324.00" xmlns="http://www.w3.org/2000/svg" xmlns:xlink="http://www.w3.org/1999/xlink">
<g id="graph0" class="graph" transform="scale(1 1) rotate(0) translate(4 320)">
<title>G</title>
<polygon fill="white" stroke="none" points="-4,4 -4,-320 905,-320 905,4 -4,4"/>
<g id="clust1" class="cluster">
<title>cluster_0</title>
<polygon fill="none" stroke="blue" points="201,-8 201,-84.8 611,-84.8 611,-8 201,-8"/>
<text text-anchor="middle" x="406" y="-67.5" font-family="Times,serif" font-size="14.00">Bases</text>
</g>
<g id="clust2" class="cluster">
<title>cluster_1</title>
<polygon fill="none" stroke="green" points="363,-119.6 363,-196.4 893,-196.4 893,-119.6 363,-119.6"/>
<text text-anchor="middle" x="628" y="-179.1" font-family="Times,serif" font-size="14.00">Badges</text>
</g>
<g id="clust3" class="cluster">
<title>cluster_2</title>
<polygon fill="none" stroke="red" points="8,-119.6 8,-308 145,-308 145,-119.6 8,-119.6"/>
<text text-anchor="middle" x="76.5" y="-290.7" font-family="Times,serif" font-size="14.00">Database Server</text>
</g>
<!-- U -->
<g id="node1" class="node">
<title>U</title>
<polygon fill="none" stroke="black" points="284.5,-52 209.5,-52 209.5,-16 284.5,-16 284.5,-52"/>
<text text-anchor="middle" x="247" y="-29.1" font-family="Times,serif" font-size="14.00">Uber&#45;Base</text>
</g>
<!-- DS -->
<g id="node9" class="node">
<title>DS</title>
<polygon fill="none" stroke="black" points="137,-275.2 49,-275.2 49,-239.2 137,-239.2 137,-275.2"/>
<text text-anchor="middle" x="93" y="-252.3" font-family="Times,serif" font-size="14.00">Data Storage</text>
</g>
<!-- U&#45;&gt;DS -->
<g id="edge1" class="edge">
<title>U&#45;&gt;DS</title>
<path fill="none" stroke="black" d="M250.94,-52.26C257.15,-84.09 265.5,-152.74 234,-196.4 213.96,-224.18 178.39,-239.14 147.99,-247.15"/>
<polygon fill="black" stroke="black" points="147.38,-243.94 138.49,-249.71 149.03,-250.74 147.38,-243.94"/>
<text text-anchor="middle" x="300.5" y="-140.7" font-family="Times,serif" font-size="14.00">Sends Requests</text>
</g>
<!-- V -->
<g id="node2" class="node">
<title>V</title>
<polygon fill="none" stroke="black" points="387.5,-52 302.5,-52 302.5,-16 387.5,-16 387.5,-52"/>
<text text-anchor="middle" x="345" y="-29.1" font-family="Times,serif" font-size="14.00">Vision&#45;Base</text>
</g>
<!-- A -->
<g id="node3" class="node">
<title>A</title>
<polygon fill="none" stroke="black" points="603,-52 521,-52 521,-16 603,-16 603,-52"/>
<text text-anchor="middle" x="562" y="-29.1" font-family="Times,serif" font-size="14.00">Audio&#45;Base</text>
</g>
<!-- L -->
<g id="node4" class="node">
<title>L</title>
<polygon fill="none" stroke="black" points="502.5,-52 405.5,-52 405.5,-16 502.5,-16 502.5,-52"/>
<text text-anchor="middle" x="454" y="-29.1" font-family="Times,serif" font-size="14.00">Location&#45;Base</text>
</g>
<!-- VB -->
<g id="node5" class="node">
<title>VB</title>
<polygon fill="none" stroke="black" points="464.5,-163.6 371.5,-163.6 371.5,-127.6 464.5,-127.6 464.5,-163.6"/>
<text text-anchor="middle" x="418" y="-140.7" font-family="Times,serif" font-size="14.00">Vision&#45;Badge</text>
</g>
<!-- VB&#45;&gt;V -->
<g id="edge8" class="edge">
<title>VB&#45;&gt;V</title>
<path fill="none" stroke="black" d="M406.59,-127.47C394.82,-109.8 376.31,-82 362.65,-61.49"/>
<polygon fill="black" stroke="black" points="365.02,-59.75 356.57,-53.37 359.2,-63.63 365.02,-59.75"/>
</g>
<!-- VBD -->
<g id="node6" class="node">
<title>VBD</title>
<polygon fill="none" stroke="black" points="734.5,-163.6 601.5,-163.6 601.5,-127.6 734.5,-127.6 734.5,-163.6"/>
<text text-anchor="middle" x="668" y="-140.7" font-family="Times,serif" font-size="14.00">Voice&#45;Badge Deluxe</text>
</g>
<!-- VBD&#45;&gt;A -->
<g id="edge9" class="edge">
<title>VBD&#45;&gt;A</title>
<path fill="none" stroke="black" d="M651.44,-127.47C633.96,-109.4 606.24,-80.74 586.29,-60.11"/>
<polygon fill="black" stroke="black" points="589.26,-58.12 579.8,-53.37 584.23,-62.99 589.26,-58.12"/>
</g>
<!-- VBS -->
<g id="node7" class="node">
<title>VBS</title>
<polygon fill="none" stroke="black" points="885,-163.6 753,-163.6 753,-127.6 885,-127.6 885,-163.6"/>
<text text-anchor="middle" x="819" y="-140.7" font-family="Times,serif" font-size="14.00">Voice&#45;Badge Simple</text>
</g>
<!-- VBS&#45;&gt;A -->
<g id="edge10" class="edge">
<title>VBS&#45;&gt;A</title>
<path fill="none" stroke="black" d="M777.99,-127.11C733.14,-107.99 661.21,-77.31 612.81,-56.67"/>
<polygon fill="black" stroke="black" points="614.43,-53.13 603.86,-52.43 611.69,-59.57 614.43,-53.13"/>
</g>
<!-- RB -->
<g id="node8" class="node">
<title>RB</title>
<polygon fill="none" stroke="black" points="583,-163.6 483,-163.6 483,-127.6 583,-127.6 583,-163.6"/>
<text text-anchor="middle" x="533" y="-140.7" font-family="Times,serif" font-size="14.00">Regular&#45;Badge</text>
</g>
<!-- RB&#45;&gt;L -->
<g id="edge11" class="edge">
<title>RB&#45;&gt;L</title>
<path fill="none" stroke="black" d="M520.66,-127.47C507.86,-109.72 487.7,-81.75 472.9,-61.21"/>
<polygon fill="black" stroke="black" points="475.2,-59.43 466.52,-53.37 469.53,-63.53 475.2,-59.43"/>
</g>
<!-- DS&#45;&gt;U -->
<g id="edge2" class="edge">
<title>DS&#45;&gt;U</title>
<path fill="none" stroke="black" d="M121.95,-239.04C128.16,-234.05 134.04,-228.06 138,-221.2 160.78,-181.72 130.54,-159.82 152,-119.6 165.31,-94.65 189.07,-73.49 209.5,-58.58"/>
<polygon fill="black" stroke="black" points="211.15,-60.99 217.31,-52.37 207.12,-55.27 211.15,-60.99"/>
<text text-anchor="middle" x="191" y="-140.7" font-family="Times,serif" font-size="14.00">Sends Results</text>
</g>
<!-- MS -->
<g id="node10" class="node">
<title>MS</title>
<polygon fill="none" stroke="black" points="115.5,-163.6 20.5,-163.6 20.5,-127.6 115.5,-127.6 115.5,-163.6"/>
<text text-anchor="middle" x="68" y="-140.7" font-family="Times,serif" font-size="14.00">Microservices</text>
</g>
<!-- DS&#45;&gt;MS -->
<g id="edge3" class="edge">
<title>DS&#45;&gt;MS</title>
<path fill="none" stroke="black" d="M51.76,-238.77C45.04,-234.07 38.99,-228.27 35,-221.2 26.18,-205.57 34.17,-187.14 44.5,-172.51"/>
<polygon fill="black" stroke="black" points="47.77,-175 51.1,-164.95 42.22,-170.73 47.77,-175"/>
<text text-anchor="middle" x="86.5" y="-207.9" font-family="Times,serif" font-size="14.00">Allocates Services</text>
</g>
<!-- MS&#45;&gt;U -->
<g id="edge4" class="edge">
<title>MS&#45;&gt;U</title>
<path fill="none" stroke="black" d="M59.35,-127.21C55.29,-116.35 52.76,-102.61 60,-92.8 91.52,-50.07 154.23,-37.97 198.31,-35.03"/>
<polygon fill="black" stroke="black" points="198.29,-38.48 208.09,-34.46 197.92,-31.49 198.29,-38.48"/>
<text text-anchor="middle" x="99" y="-96.3" font-family="Times,serif" font-size="14.00">Sends Results</text>
</g>
<!-- MS&#45;&gt;V -->
<g id="edge5" class="edge">
<title>MS&#45;&gt;V</title>
<path fill="none" stroke="black" d="M108.32,-127.16C115.47,-124.41 122.9,-121.77 130,-119.6 201.27,-97.85 228.3,-119.95 294,-84.8 305.36,-78.72 315.92,-69.35 324.44,-60.37"/>
<polygon fill="black" stroke="black" points="326.58,-63.11 330.67,-53.33 321.38,-58.43 326.58,-63.11"/>
</g>
<!-- MS&#45;&gt;A -->
<g id="edge6" class="edge">
<title>MS&#45;&gt;A</title>
<path fill="none" stroke="black" d="M105.4,-127.22C113.37,-124.17 121.84,-121.4 130,-119.6 213.87,-101.06 237.46,-117.42 323,-109.6 407.37,-101.89 435.97,-122.18 512,-84.8 523.62,-79.09 534.16,-69.61 542.54,-60.44"/>
<polygon fill="black" stroke="black" points="545.73,-63.1 549.59,-53.23 540.42,-58.54 545.73,-63.1"/>
</g>
<!-- MS&#45;&gt;L -->
<g id="edge7" class="edge">
<title>MS&#45;&gt;L</title>
<path fill="none" stroke="black" d="M106.12,-127.19C113.89,-124.23 122.1,-121.5 130,-119.6 179.02,-107.82 192.97,-115.83 243,-109.6 311.79,-101.03 334.24,-114.26 397,-84.8 409.82,-78.78 421.96,-69 431.71,-59.69"/>
<polygon fill="black" stroke="black" points="433.71,-62.63 438.3,-53.08 428.76,-57.69 433.71,-62.63"/>
</g>
</g>
</svg>
