<?xml version="1.0" encoding="UTF-8" standalone="no"?>
<!DOCTYPE svg PUBLIC "-//W3C//DTD SVG 1.1//EN"
 "http://www.w3.org/Graphics/SVG/1.1/DTD/svg11.dtd">
<!-- Generated by graphviz version 8.0.4 (20230422.2207)
 -->
<!-- Title: G Pages: 1 -->
<svg width="763pt" height="348pt"
 viewBox="0.00 0.00 763.00 348.00" xmlns="http://www.w3.org/2000/svg" xmlns:xlink="http://www.w3.org/1999/xlink">
<g id="graph0" class="graph" transform="scale(1 1) rotate(0) translate(4 344)">
<title>G</title>
<polygon fill="white" stroke="none" points="-4,4 -4,-344 759,-344 759,4 -4,4"/>
<g id="clust1" class="cluster">
<title>cluster_0</title>
<polygon fill="none" stroke="red" points="237,-255 237,-332 594,-332 594,-255 237,-255"/>
<text text-anchor="middle" x="415.5" y="-314.7" font-family="Times,serif" font-size="14.00">Database Server (Server)</text>
</g>
<g id="clust2" class="cluster">
<title>cluster_1</title>
<polygon fill="none" stroke="blue" points="634,-62 634,-247 747,-247 747,-62 634,-62"/>
<text text-anchor="middle" x="690.5" y="-229.7" font-family="Times,serif" font-size="14.00">Bases</text>
</g>
<g id="clust3" class="cluster">
<title>cluster_2</title>
<polygon fill="none" stroke="green" points="464,-8 464,-247 613,-247 613,-8 464,-8"/>
<text text-anchor="middle" x="538.5" y="-229.7" font-family="Times,serif" font-size="14.00">Badges</text>
</g>
<!-- U -->
<g id="node1" class="node">
<title>U</title>
<polygon fill="none" stroke="black" points="122,-299 0,-299 0,-263 122,-263 122,-299"/>
<text text-anchor="middle" x="61" y="-276.1" font-family="Times,serif" font-size="14.00">Uber&#45;Base (Client)</text>
</g>
<!-- DS -->
<g id="node2" class="node">
<title>DS</title>
<polygon fill="none" stroke="black" points="333,-299 245,-299 245,-263 333,-263 333,-299"/>
<text text-anchor="middle" x="289" y="-276.1" font-family="Times,serif" font-size="14.00">Data Storage</text>
</g>
<!-- U&#45;&gt;DS -->
<g id="edge1" class="edge">
<title>U&#45;&gt;DS</title>
<path fill="none" stroke="black" d="M122.27,-281C157.07,-281 200.49,-281 234.15,-281"/>
<polygon fill="black" stroke="black" points="233.71,-284.5 243.71,-281 233.71,-277.5 233.71,-284.5"/>
<text text-anchor="middle" x="183.5" y="-284.5" font-family="Times,serif" font-size="14.00">Sends Requests</text>
</g>
<!-- DS&#45;&gt;U -->
<g id="edge2" class="edge">
<title>DS&#45;&gt;U</title>
<path fill="none" stroke="black" d="M244.8,-264.34C238.89,-262.63 232.85,-261.17 227,-260.2 188.85,-253.88 178.34,-255.18 140,-260.2 137.63,-260.51 135.23,-260.87 132.81,-261.28"/>
<polygon fill="black" stroke="black" points="132.33,-258 123.16,-263.3 133.63,-264.87 132.33,-258"/>
<text text-anchor="middle" x="183.5" y="-263.5" font-family="Times,serif" font-size="14.00">Sends Results</text>
</g>
<!-- MS -->
<g id="node3" class="node">
<title>MS</title>
<polygon fill="none" stroke="black" points="586,-299 491,-299 491,-263 586,-263 586,-299"/>
<text text-anchor="middle" x="538.5" y="-276.1" font-family="Times,serif" font-size="14.00">Microservices</text>
</g>
<!-- DS&#45;&gt;MS -->
<g id="edge3" class="edge">
<title>DS&#45;&gt;MS</title>
<path fill="none" stroke="black" d="M333.39,-281C374.04,-281 435.05,-281 479.78,-281"/>
<polygon fill="black" stroke="black" points="479.78,-284.5 489.78,-281 479.78,-277.5 479.78,-284.5"/>
<text text-anchor="middle" x="402.5" y="-284.5" font-family="Times,serif" font-size="14.00">Allocates Services</text>
</g>
<!-- V -->
<g id="node4" class="node">
<title>V</title>
<polygon fill="none" stroke="black" points="733,-214 648,-214 648,-178 733,-178 733,-214"/>
<text text-anchor="middle" x="690.5" y="-191.1" font-family="Times,serif" font-size="14.00">Vision&#45;Base</text>
</g>
<!-- MS&#45;&gt;V -->
<g id="edge4" class="edge">
<title>MS&#45;&gt;V</title>
<path fill="none" stroke="black" d="M586.15,-263.9C595.24,-260.03 604.56,-255.67 613,-251 628.73,-242.29 645.06,-230.92 658.57,-220.78"/>
<polygon fill="black" stroke="black" points="660.18,-223.19 666,-214.34 655.93,-217.63 660.18,-223.19"/>
</g>
<!-- A -->
<g id="node5" class="node">
<title>A</title>
<polygon fill="none" stroke="black" points="731.5,-106 649.5,-106 649.5,-70 731.5,-70 731.5,-106"/>
<text text-anchor="middle" x="690.5" y="-83.1" font-family="Times,serif" font-size="14.00">Audio&#45;Base</text>
</g>
<!-- MS&#45;&gt;A -->
<g id="edge5" class="edge">
<title>MS&#45;&gt;A</title>
<path fill="none" stroke="black" d="M586.27,-270.23C596.43,-265.83 606.17,-259.65 613,-251 617.74,-245 629.46,-121.15 634,-115 635.88,-112.45 638.06,-110.14 640.46,-108.03"/>
<polygon fill="black" stroke="black" points="642.22,-110.34 648.26,-101.64 638.11,-104.68 642.22,-110.34"/>
</g>
<!-- L -->
<g id="node6" class="node">
<title>L</title>
<polygon fill="none" stroke="black" points="739,-160 642,-160 642,-124 739,-124 739,-160"/>
<text text-anchor="middle" x="690.5" y="-137.1" font-family="Times,serif" font-size="14.00">Location&#45;Base</text>
</g>
<!-- MS&#45;&gt;L -->
<g id="edge6" class="edge">
<title>MS&#45;&gt;L</title>
<path fill="none" stroke="black" d="M586.44,-269.41C596.35,-265.05 605.94,-259.1 613,-251 637.72,-222.64 610.22,-198.15 634,-169 634.41,-168.49 634.84,-168 635.27,-167.51"/>
<polygon fill="black" stroke="black" points="637.12,-170.65 642.17,-161.33 632.41,-165.47 637.12,-170.65"/>
</g>
<!-- VB -->
<g id="node7" class="node">
<title>VB</title>
<polygon fill="none" stroke="black" points="585,-214 492,-214 492,-178 585,-178 585,-214"/>
<text text-anchor="middle" x="538.5" y="-191.1" font-family="Times,serif" font-size="14.00">Vision&#45;Badge</text>
</g>
<!-- VB&#45;&gt;V -->
<g id="edge7" class="edge">
<title>VB&#45;&gt;V</title>
<path fill="none" stroke="black" d="M585.32,-196C601.58,-196 620,-196 636.78,-196"/>
<polygon fill="black" stroke="black" points="636.54,-199.5 646.54,-196 636.54,-192.5 636.54,-199.5"/>
</g>
<!-- VBD -->
<g id="node8" class="node">
<title>VBD</title>
<polygon fill="none" stroke="black" points="605,-52 472,-52 472,-16 605,-16 605,-52"/>
<text text-anchor="middle" x="538.5" y="-29.1" font-family="Times,serif" font-size="14.00">Voice&#45;Badge Deluxe</text>
</g>
<!-- VBD&#45;&gt;A -->
<g id="edge8" class="edge">
<title>VBD&#45;&gt;A</title>
<path fill="none" stroke="black" d="M590.7,-52.43C606.44,-58.1 623.73,-64.32 639.39,-69.96"/>
<polygon fill="black" stroke="black" points="637.82,-73.47 648.41,-73.57 640.19,-66.89 637.82,-73.47"/>
</g>
<!-- VBS -->
<g id="node9" class="node">
<title>VBS</title>
<polygon fill="none" stroke="black" points="604.5,-106 472.5,-106 472.5,-70 604.5,-70 604.5,-106"/>
<text text-anchor="middle" x="538.5" y="-83.1" font-family="Times,serif" font-size="14.00">Voice&#45;Badge Simple</text>
</g>
<!-- VBS&#45;&gt;A -->
<g id="edge9" class="edge">
<title>VBS&#45;&gt;A</title>
<path fill="none" stroke="black" d="M604.86,-88C616.11,-88 627.65,-88 638.45,-88"/>
<polygon fill="black" stroke="black" points="638.4,-91.5 648.4,-88 638.4,-84.5 638.4,-91.5"/>
</g>
<!-- RB -->
<g id="node10" class="node">
<title>RB</title>
<polygon fill="none" stroke="black" points="588.5,-160 488.5,-160 488.5,-124 588.5,-124 588.5,-160"/>
<text text-anchor="middle" x="538.5" y="-137.1" font-family="Times,serif" font-size="14.00">Regular&#45;Badge</text>
</g>
<!-- RB&#45;&gt;L -->
<g id="edge10" class="edge">
<title>RB&#45;&gt;L</title>
<path fill="none" stroke="black" d="M588.62,-142C602.03,-142 616.71,-142 630.61,-142"/>
<polygon fill="black" stroke="black" points="630.55,-145.5 640.55,-142 630.55,-138.5 630.55,-145.5"/>
</g>
</g>
</svg>
